<svg xmlns="http://www.w3.org/2000/svg" width="536.5491943359375" height="664.38671875" viewBox="94.62265014648438 9.61328125 556.5491943359375 684.38671875" style="touch-action: none;"><defs><style>.a{fill:#706f6f;}.b{fill:#1d1d1b;}.c,.d,.e{fill:none;stroke:#1d1d1b;stroke-miterlimit:10;stroke-width:2px;}.c{stroke-linecap:round;}.e{stroke-dasharray:3.23 3.23;}.f{fill:#fff;}.g{fill:#006f98;}</style></defs><g class="metabomaps-zoom" transform="translate(0,0) scale(1)"><title>TCA-cycle</title><path class="a" d="M196.75,423.25v-1.9h-4.13v-1.14l3.55-6.73H198v6.8h1.23v1.07H198v1.9Zm-3-3h3v-5.69h-.17Z"/><path class="a" d="M200.62,422.65v-.25c0-.49.31-.77.9-.77s.89.28.89.77v.25c0,.49-.3.77-.89.77S200.62,423.14,200.62,422.65Z"/><path class="a" d="M210.08,423.25h-5.89V422l2.91-3a3.72,3.72,0,0,0,1.36-2.53v-.38c0-1.08-.49-1.61-1.47-1.61a1.71,1.71,0,0,0-1.75,1.48l-1.13-.45a2.91,2.91,0,0,1,2.94-2.16c1.9,0,2.75,1,2.75,2.78,0,1.29-.43,2.07-1.9,3.62l-2.32,2.44h4.5Z"/><path class="a" d="M211.76,422.65v-.25c0-.49.31-.77.9-.77s.89.28.89.77v.25c0,.49-.31.77-.89.77S211.76,423.14,211.76,422.65Z"/><path class="a" d="M215.54,423.25v-1.09h2.39v-7.5l-2.31,1.5-.54-.89,2.74-1.79h1.37v8.68h2.18v1.09Z"/><path class="a" d="M222.9,422.65v-.25c0-.49.3-.77.89-.77s.9.28.9.77v.25c0,.49-.31.77-.9.77S222.9,423.14,222.9,422.65Z"/><path class="a" d="M232.36,423.25h-5.9V422l2.92-3a3.74,3.74,0,0,0,1.35-2.53v-.38c0-1.08-.49-1.61-1.47-1.61a1.72,1.72,0,0,0-1.75,1.48l-1.13-.45a2.91,2.91,0,0,1,2.94-2.16,2.45,2.45,0,0,1,2.76,2.78c0,1.29-.44,2.07-1.91,3.62l-2.32,2.44h4.51Z"/><path class="a" d="M293.1,615.68a7.88,7.88,0,0,1,3.18-6.19H298c-2.23,1.76-3.12,3-3.53,5h.17a2,2,0,0,1,2-1.4c1.57,0,2.57,1,2.57,3s-1.06,3.25-3,3.25S293.1,618.1,293.1,615.68Zm4.77.73v-.28c0-1.26-.6-1.89-1.71-1.89s-1.7.63-1.7,1.89v.28c0,1.26.6,1.89,1.7,1.89S297.87,617.67,297.87,616.41Z"/><path class="a" d="M300.82,618.65v-.25c0-.49.31-.77.9-.77s.89.28.89.77v.25c0,.49-.3.77-.89.77S300.82,619.14,300.82,618.65Z"/><path class="a" d="M310.28,619.25h-5.89V618l2.91-3a3.7,3.7,0,0,0,1.36-2.53v-.38c0-1.08-.49-1.61-1.47-1.61a1.71,1.71,0,0,0-1.75,1.48l-1.13-.44a2.9,2.9,0,0,1,2.94-2.17c1.9,0,2.75,1,2.75,2.78,0,1.29-.43,2.07-1.9,3.63l-2.32,2.43h4.5Z"/><path class="a" d="M312,618.65v-.25c0-.49.31-.77.9-.77s.89.28.89.77v.25c0,.49-.31.77-.89.77S312,619.14,312,618.65Z"/><path class="a" d="M315.74,619.25v-1.09h2.39v-7.5l-2.31,1.5-.54-.88,2.74-1.79h1.37v8.67h2.18v1.09Z"/><path class="a" d="M323.1,618.65v-.25c0-.49.3-.77.89-.77s.9.28.9.77v.25c0,.49-.31.77-.9.77S323.1,619.14,323.1,618.65Z"/><path class="a" d="M332.14,610.58h-3.88l-.24,3.77h.17a1.74,1.74,0,0,1,1.79-1.23c1.55,0,2.6,1,2.6,3s-1.1,3.26-3.05,3.26a3.22,3.22,0,0,1-2.89-1.69l1-.72a2.12,2.12,0,0,0,1.93,1.29c1.14,0,1.71-.64,1.71-1.87v-.35c0-1.24-.57-1.88-1.71-1.88A1.73,1.73,0,0,0,328,615l-1.09-.14.32-5.38h4.9Z"/><path class="a" d="M506.06,482.72v-1.09h2.39v-7.5l-2.3,1.5-.55-.88,2.74-1.79h1.37v8.67h2.19v1.09Z"/><path class="a" d="M513.42,482.12v-.25c0-.49.31-.77.9-.77s.89.28.89.77v.25c0,.49-.31.77-.89.77S513.42,482.61,513.42,482.12Z"/><path class="a" d="M517.2,482.72v-1.09h2.39v-7.5l-2.31,1.5-.54-.88,2.74-1.79h1.37v8.67H523v1.09Z"/><path class="a" d="M524.56,482.12v-.25c0-.49.31-.77.89-.77s.9.28.9.77v.25c0,.49-.31.77-.9.77S524.56,482.61,524.56,482.12Z"/><path class="a" d="M528.34,482.72v-1.09h2.39v-7.5l-2.31,1.5-.54-.88,2.74-1.79H532v8.67h2.18v1.09Z"/><path class="a" d="M535.7,482.12v-.25c0-.49.3-.77.89-.77s.9.28.9.77v.25c0,.49-.31.77-.9.77S535.7,482.61,535.7,482.12Z"/><path class="a" d="M543,482.72v-1.9h-4.13v-1.13l3.55-6.73h1.81v6.8h1.23v1.06h-1.23v1.9Zm-3-3h3v-5.7h-.17Z"/><path class="a" d="M547,482.72v-1.09h2.39v-7.5l-2.31,1.5-.54-.88,2.74-1.79h1.37v8.67h2.18v1.09Z"/><path class="a" d="M495.12,367.3v-1.9H491v-1.14l3.56-6.73h1.8v6.8h1.23v1.07h-1.23v1.9Zm-3-3h3v-5.69H495Z"/><path class="a" d="M499,366.7v-.25c0-.49.3-.77.89-.77s.9.28.9.77v.25c0,.49-.31.77-.9.77S499,367.19,499,366.7Z"/><path class="a" d="M508.46,367.3h-5.9V366l2.91-3a3.72,3.72,0,0,0,1.36-2.54v-.37c0-1.08-.49-1.61-1.47-1.61a1.72,1.72,0,0,0-1.75,1.48l-1.13-.45a2.92,2.92,0,0,1,2.94-2.17c1.9,0,2.75,1,2.75,2.79,0,1.29-.43,2.07-1.9,3.62L504,366.21h4.51Z"/><path class="a" d="M510.13,366.7v-.25c0-.49.31-.77.9-.77s.89.28.89.77v.25c0,.49-.3.77-.89.77S510.13,367.19,510.13,366.7Z"/><path class="a" d="M513.91,367.3v-1.09h2.39v-7.5l-2.3,1.5-.55-.89,2.74-1.79h1.37v8.68h2.19v1.09Z"/><path class="a" d="M521.27,366.7v-.25c0-.49.31-.77.9-.77s.89.28.89.77v.25c0,.49-.31.77-.89.77S521.27,367.19,521.27,366.7Z"/><path class="a" d="M527.25,361.65c1.11,0,1.67-.6,1.67-1.5v-.25a1.28,1.28,0,0,0-1.46-1.42,1.87,1.87,0,0,0-1.8,1.19l-.89-.72a3,3,0,0,1,2.76-1.59c1.77,0,2.74.89,2.74,2.48a2.12,2.12,0,0,1-1.74,2.24v.17a2.09,2.09,0,0,1,1.91,2.34,2.74,2.74,0,0,1-3.07,2.88,3.31,3.31,0,0,1-3-1.67l1-.73a2.05,2.05,0,0,0,2,1.28,1.52,1.52,0,0,0,1.75-1.67v-.28c0-1.1-.61-1.66-1.75-1.66h-1v-1.09Z"/><path class="a" d="M172.18,206.86v-1.09h2.39v-7.5l-2.31,1.5-.54-.88,2.74-1.79h1.37v8.67H178v1.09Z"/><path class="a" d="M179.54,206.26V206c0-.49.31-.77.9-.77s.89.28.89.77v.25c0,.49-.31.77-.89.77S179.54,206.75,179.54,206.26Z"/><path class="a" d="M183.32,206.86v-1.09h2.39v-7.5l-2.31,1.5-.54-.88,2.74-1.79H187v8.67h2.18v1.09Z"/><path class="a" d="M190.68,206.26V206c0-.49.31-.77.89-.77s.9.28.9.77v.25c0,.49-.31.77-.9.77S190.68,206.75,190.68,206.26Z"/><path class="a" d="M194.46,206.86v-1.09h2.39v-7.5l-2.31,1.5-.55-.88,2.75-1.79h1.37v8.67h2.18v1.09Z"/><path class="a" d="M201.81,206.26V206c0-.49.31-.77.9-.77s.9.28.9.77v.25c0,.49-.31.77-.9.77S201.81,206.75,201.81,206.26Z"/><path class="a" d="M209.08,206.86V205H205v-1.13l3.55-6.73h1.81v6.8h1.23V205h-1.23v1.9Zm-3-3h3v-5.7h-.17Z"/><path class="a" d="M212.73,202c0-3.61,1-5,3.11-5s3.1,1.44,3.1,5S218,207,215.84,207,212.73,205.59,212.73,202Zm4.85,1.36v-2.72c0-1.66-.49-2.58-1.74-2.58s-1.75.92-1.75,2.58v2.72c0,1.66.49,2.59,1.75,2.59S217.58,205,217.58,203.34Z"/><path class="a" d="M290.19,206.86V205h-4.13v-1.13l3.55-6.73h1.81v6.8h1.23V205h-1.23v1.9Zm-3-3h3v-5.7H290Z"/><path class="a" d="M294.06,206.26V206c0-.49.31-.77.9-.77s.89.28.89.77v.25c0,.49-.3.77-.89.77S294.06,206.75,294.06,206.26Z"/><path class="a" d="M297.84,206.86v-1.09h2.39v-7.5l-2.31,1.5-.54-.88,2.74-1.79h1.37v8.67h2.18v1.09Z"/><path class="a" d="M305.2,206.26V206c0-.49.31-.77.89-.77s.9.28.9.77v.25c0,.49-.31.77-.9.77S305.2,206.75,305.2,206.26Z"/><path class="a" d="M309,206.86v-1.09h2.39v-7.5l-2.31,1.5-.54-.88,2.74-1.79h1.37v8.67h2.18v1.09Z"/><path class="a" d="M316.34,206.26V206c0-.49.3-.77.89-.77s.9.28.9.77v.25c0,.49-.31.77-.9.77S316.34,206.75,316.34,206.26Z"/><path class="a" d="M322.31,201.21c1.12,0,1.68-.6,1.68-1.5v-.25a1.28,1.28,0,0,0-1.47-1.41,1.86,1.86,0,0,0-1.79,1.19l-.9-.73a3.06,3.06,0,0,1,2.76-1.58c1.78,0,2.74.88,2.74,2.48a2.11,2.11,0,0,1-1.73,2.23v.17a2.1,2.1,0,0,1,1.9,2.34,2.74,2.74,0,0,1-3.06,2.88,3.31,3.31,0,0,1-3-1.66l1-.73a2.06,2.06,0,0,0,2,1.27,1.53,1.53,0,0,0,1.75-1.66V204a1.53,1.53,0,0,0-1.75-1.67h-1v-1.09Z"/><path class="a" d="M406.17,130.09V129h2.39v-7.5l-2.31,1.5-.55-.88,2.75-1.79h1.37V129H412v1.09Z"/><path class="a" d="M413.53,129.49v-.25c0-.49.3-.77.89-.77s.9.28.9.77v.25c0,.49-.31.77-.9.77S413.53,130,413.53,129.49Z"/><path class="a" d="M423,130.09h-5.89v-1.28l2.91-3a3.7,3.7,0,0,0,1.36-2.53v-.38c0-1.07-.49-1.61-1.47-1.61a1.73,1.73,0,0,0-1.75,1.49l-1.13-.45a2.91,2.91,0,0,1,2.94-2.17c1.9,0,2.75,1,2.75,2.78,0,1.29-.43,2.08-1.9,3.63L418.48,129H423Z"/><path class="a" d="M424.66,129.49v-.25c0-.49.31-.77.9-.77s.89.28.89.77v.25c0,.49-.3.77-.89.77S424.66,130,424.66,129.49Z"/><path class="a" d="M429.52,130.09l3.26-8.67H429.3v1.8h-1.13v-2.89h5.9v1.12l-3.18,8.64Z"/><path class="a" d="M435.8,129.49v-.25c0-.49.31-.77.9-.77s.89.28.89.77v.25c0,.49-.31.77-.89.77S435.8,130,435.8,129.49Z"/><path class="a" d="M439.58,130.09V129H442v-7.5l-2.31,1.5-.54-.88,2.74-1.79h1.37V129h2.18v1.09Z"/><path class="b" d="M124.11,441.88h-5.06v4.86h-1.81V435.57h1.81v4.7h5.06v-4.7h1.81v11.17h-1.81Z"/><path class="b" d="M132.33,448.74h-4.47v-1.12l1.94-1.54c.71-.54,1-.94,1-1.45v-.07c0-.51-.36-.76-.89-.76a1.06,1.06,0,0,0-1.09.84l-1.1-.41a2.24,2.24,0,0,1,2.3-1.49c1.36,0,2.15.73,2.15,1.77s-.74,1.67-1.65,2.29l-1.3.92h3.09Z"/><path class="b" d="M133.7,441.15c0-3.76,1.91-5.77,4.82-5.77s4.82,2,4.82,5.77-1.9,5.78-4.82,5.78S133.7,444.92,133.7,441.15Zm7.7.88v-1.76c0-2-1.15-3.28-2.88-3.28s-2.88,1.25-2.88,3.28V442c0,2,1.15,3.29,2.88,3.29S141.4,444.07,141.4,442Z"/><path class="b" d="M423.49,225.87h-5.06v4.87h-1.8V219.57h1.8v4.7h5.06v-4.7h1.81v11.17h-1.81Z"/><path class="b" d="M431.71,232.74h-4.46v-1.12l1.93-1.54c.71-.54,1-.94,1-1.45v-.07c0-.51-.37-.77-.9-.77a1.07,1.07,0,0,0-1.09.85l-1.1-.41a2.25,2.25,0,0,1,2.3-1.49c1.37,0,2.15.73,2.15,1.77s-.74,1.67-1.65,2.29l-1.29.92h3.08Z"/><path class="b" d="M433.09,225.15c0-3.76,1.9-5.77,4.82-5.77s4.81,2,4.81,5.77-1.9,5.78-4.81,5.78S433.09,228.92,433.09,225.15Zm7.7.88v-1.76c0-2-1.16-3.28-2.88-3.28s-2.88,1.25-2.88,3.28V226c0,2,1.15,3.29,2.88,3.29S440.79,228.07,440.79,226Z"/><path class="b" d="M362.37,206l-1-3h-4.17l-1,3h-1.84l3.81-11.17h2.27L364.26,206Zm-3.05-9.5h-.08l-1.62,4.93h3.3Z"/><path class="b" d="M365.3,201.84c0-2.66,1.37-4.35,3.78-4.35a3.19,3.19,0,0,1,3.21,2l-1.44.67a1.72,1.72,0,0,0-1.77-1.27c-1.28,0-1.94.88-1.94,2.17v1.48a1.89,1.89,0,0,0,1.94,2.16,2,2,0,0,0,1.95-1.37l1.33.7a3.28,3.28,0,0,1-3.28,2.11C366.67,206.19,365.3,204.5,365.3,201.84Z"/><path class="b" d="M373.36,201.84c0-2.66,1.46-4.35,3.83-4.35s3.69,1.84,3.69,4.14v.66h-5.71v.27a2,2,0,0,0,2.19,2.19,2.45,2.45,0,0,0,2.2-1.24l1,1a3.85,3.85,0,0,1-3.39,1.68C374.82,206.19,373.36,204.5,373.36,201.84Zm1.81-.81v.11H379V201c0-1.28-.7-2.13-1.85-2.13A2,2,0,0,0,375.17,201Z"/><path class="b" d="M385.12,206a1.65,1.65,0,0,1-1.84-1.81V199.1H382v-1.42h.7c.58,0,.77-.24.77-.82v-1.45H385v2.27h1.74v1.42H385v5.48h1.61V206Z"/><path class="b" d="M393.76,197.68h1.68l-3.5,10a2,2,0,0,1-2.19,1.55h-1v-1.42h1.41l.48-1.41-3-8.69h1.75l1.66,4.9.48,1.81h.08l.53-1.81Z"/><path class="b" d="M398.66,206a1.58,1.58,0,0,1-1.78-1.73V194.16h1.75v10.42h1.15V206Z"/><path class="b" d="M401,202v-1.78h4.43V202Z"/><path class="b" d="M407.57,200.42c0-3.75,1.78-5.78,4.69-5.78a4,4,0,0,1,4,2.53l-1.52.83a2.43,2.43,0,0,0-2.46-1.74c-1.71,0-2.77,1.24-2.77,3.31v1.7c0,2.06,1.06,3.31,2.77,3.31a2.63,2.63,0,0,0,2.58-1.86l1.45.88a4.19,4.19,0,0,1-4,2.59C409.35,206.19,407.57,204.16,407.57,200.42Z"/><path class="b" d="M417.52,201.84c0-2.66,1.51-4.35,3.83-4.35s3.82,1.69,3.82,4.35-1.5,4.35-3.82,4.35S417.52,204.5,417.52,201.84Zm5.81.71v-1.41c0-1.48-.8-2.21-2-2.21s-2,.73-2,2.21v1.41c0,1.47.8,2.2,2,2.2S423.33,204,423.33,202.55Z"/><path class="b" d="M434.21,206l-1-3H429l-1,3h-1.84L430,194.83h2.27L436.1,206Zm-3.06-9.5h-.08l-1.61,4.93h3.3Z"/><path class="b" d="M477.84,241.86c0-3.74,1.78-5.78,4.69-5.78a4,4,0,0,1,4,2.53l-1.52.83a2.44,2.44,0,0,0-2.46-1.74c-1.71,0-2.77,1.25-2.77,3.31v1.7c0,2.06,1.06,3.31,2.77,3.31a2.63,2.63,0,0,0,2.58-1.85l1.45.88a4.2,4.2,0,0,1-4,2.59C479.62,247.64,477.84,245.61,477.84,241.86Z"/><path class="b" d="M487.79,243.29c0-2.66,1.51-4.36,3.83-4.36s3.82,1.7,3.82,4.36-1.5,4.35-3.82,4.35S487.79,245.94,487.79,243.29Zm5.81.7v-1.41c0-1.47-.8-2.21-2-2.21s-2,.74-2,2.21V244c0,1.47.8,2.21,2,2.21S493.6,245.46,493.6,244Z"/><path class="b" d="M504.48,247.45l-1-3H499.3l-1,3h-1.84l3.81-11.17h2.27l3.81,11.17Zm-3.06-9.51h-.08l-1.61,4.93H503Z"/><line class="c" x1="395.23" y1="175.99" x2="395.23" y2="126.42"/><polygon class="b" points="395.23 185.88 400.92 171.95 395.23 175.25 389.54 171.95 395.23 185.88"/><polygon class="b" points="395.23 116.54 400.92 130.47 395.23 127.16 389.54 130.47 395.23 116.54"/><path class="b" d="M364.05,100.77V89.6h4.8a3.36,3.36,0,0,1,0,6.72h-3v4.45Zm1.81-6h2.88a1.3,1.3,0,0,0,1.46-1.39v-.77a1.31,1.31,0,0,0-1.46-1.4h-2.88Z"/><path class="b" d="M379.06,92.45h1.68l-3.5,10A2,2,0,0,1,375,104h-1v-1.42h1.41l.48-1.41-3-8.69h1.74l1.67,4.9.48,1.81h.08l.52-1.81Z"/><path class="b" d="M382.18,100.77V92.45h1.74v1.6H384a2.2,2.2,0,0,1,2.29-1.6h.47v1.68h-.69c-1.38,0-2.15.46-2.15,1.33v5.31Z"/><path class="b" d="M393.35,99.4h-.07A2.28,2.28,0,0,1,391,101c-1.72,0-2.72-1.16-2.72-3.21v-5.3H390v5.07c0,1.27.53,1.94,1.6,1.94.9,0,1.78-.46,1.78-1.44V92.45h1.74v8.32h-1.74Z"/><path class="b" d="M399.39,100.77l-2.83-8.32h1.73l1.26,3.79.85,2.92h.1l.85-2.92,1.29-3.79h1.67l-2.87,8.32Z"/><path class="b" d="M411.73,100.77a1.43,1.43,0,0,1-1.5-1.39h-.08a2.32,2.32,0,0,1-2.44,1.58A2.38,2.38,0,0,1,405,98.48c0-1.64,1.23-2.49,3.55-2.49h1.5v-.71c0-1-.54-1.6-1.71-1.6a2.19,2.19,0,0,0-2,1.14l-1.05-.95a3.4,3.4,0,0,1,3.14-1.61c2.15,0,3.35,1,3.35,2.91v4.18h.88v1.42Zm-1.65-2.46v-1.2h-1.47c-1.22,0-1.81.4-1.81,1.12v.29c0,.73.55,1.12,1.41,1.12C409.28,99.64,410.08,99.12,410.08,98.31Z"/><path class="b" d="M416.67,100.77A1.65,1.65,0,0,1,414.83,99V93.87h-1.29V92.45h.7c.58,0,.77-.24.77-.82V90.18h1.57v2.27h1.74v1.42h-1.74v5.48h1.62v1.42Z"/><path class="b" d="M419.59,96.61c0-2.66,1.45-4.35,3.82-4.35s3.7,1.84,3.7,4.14v.66h-5.72v.27a2,2,0,0,0,2.2,2.19,2.45,2.45,0,0,0,2.19-1.24l1,1a3.85,3.85,0,0,1-3.39,1.68C421,101,419.59,99.27,419.59,96.61Zm1.8-.82v.12h3.88v-.16a1.88,1.88,0,0,0-1.86-2.13A2,2,0,0,0,421.39,95.79Z"/><line class="d" x1="395.23" y1="68.76" x2="395.23" y2="67.26"/><line class="e" x1="395.23" y1="64.03" x2="395.23" y2="46.28"/><line class="d" x1="395.23" y1="44.66" x2="395.23" y2="43.16"/><polygon class="b" points="395.23 78.64 400.92 64.72 395.23 68.02 389.54 64.72 395.23 78.64"/><path class="b" d="M369.38,29.29h-.06a3.19,3.19,0,0,1-3,1.72c-2,0-3.41-1.45-3.41-4.21,0-3.55,1.91-6.73,5.29-6.73a3.47,3.47,0,0,1,3.58,2.41l-1.11.5a2.53,2.53,0,0,0-2.62-1.8c-1.79,0-3.08,1.26-3.5,3.33l-.32,1.58a4.6,4.6,0,0,0-.09.91c0,1.82.91,2.91,2.55,2.91a3,3,0,0,0,3.06-2.58l.16-.83h-2.25l.24-1.12h3.44l-1.09,5.45h-1.17Z"/><path class="b" d="M373.91,30.83c-.71,0-1.06-.39-1.06-.95a1.9,1.9,0,0,1,0-.37l2-9.89h1.17L374,29.8h1.19l-.2,1Z"/><path class="b" d="M382.64,23h1.24L378.6,32.6c-.5.91-.9,1.26-1.69,1.26H375.7l.2-1h1.41l1-1.79L377,23h1.13l.58,3.87.32,2.84h.07l1.41-2.84Z"/><path class="b" d="M384,27.82c0-2.72,1.47-5,3.83-5a2.52,2.52,0,0,1,2.59,1.83l-1,.44a1.58,1.58,0,0,0-1.65-1.22c-1.24,0-2,.84-2.32,2.22l-.25,1.28a3.41,3.41,0,0,0-.07.68A1.7,1.7,0,0,0,386.93,30c.76,0,1.38-.37,2-1.53l.93.45A3.33,3.33,0,0,1,386.81,31C385,31,384,29.74,384,27.82Z"/><path class="b" d="M391.27,27.8c0-2.62,1.64-5,4-5,1.64,0,2.82,1.09,2.82,3.21,0,2.62-1.64,5-4,5C392.45,31,391.27,29.92,391.27,27.8Zm5.39-.27.23-1.14a3.16,3.16,0,0,0,.08-.68,1.68,1.68,0,0,0-1.82-1.83c-1.12,0-2.11.84-2.43,2.44l-.22,1.13a3.23,3.23,0,0,0-.08.68A1.69,1.69,0,0,0,394.24,30C395.36,30,396.34,29.12,396.66,27.53Z"/><path class="b" d="M400.7,30.83c-.72,0-1.06-.39-1.06-.95a1.8,1.8,0,0,1,0-.37l2-9.89h1.16l-2,10.18H402l-.2,1Z"/><path class="b" d="M409.43,23h1.24l-5.29,9.59c-.5.91-.89,1.26-1.68,1.26h-1.21l.19-1h1.41l1-1.79L403.82,23H405l.57,3.87.32,2.84h.08l1.41-2.84Z"/><path class="b" d="M410.34,29.59l.8-.71A2.58,2.58,0,0,0,413.29,30c1,0,1.78-.52,1.78-1.47,0-.53-.25-.91-1.16-1.09l-.59-.12c-1.18-.25-2.09-.73-2.09-2s.94-2.47,2.9-2.47A3,3,0,0,1,416.67,24l-.8.71a2.11,2.11,0,0,0-1.83-.84c-1.14,0-1.67.56-1.67,1.34,0,.55.26.9,1.14,1.08l.59.12c1.25.26,2.09.76,2.09,2.06a2.61,2.61,0,0,1-2.9,2.56A3.55,3.55,0,0,1,410.34,29.59Z"/><path class="b" d="M419.1,30.83c-.71,0-1.06-.39-1.06-.95a1.8,1.8,0,0,1,0-.37l1.31-6.5h1.16l-1.36,6.79h1.11l-.2,1Zm.65-10.18a1.9,1.9,0,0,1,.06-.43.73.73,0,0,1,.82-.6c.47,0,.63.24.63.53a1.85,1.85,0,0,1-.06.42.71.71,0,0,1-.81.61C419.92,21.18,419.75,20.94,419.75,20.65Z"/><path class="b" d="M421.48,29.59l.8-.71A2.58,2.58,0,0,0,424.43,30c1,0,1.78-.52,1.78-1.47,0-.53-.25-.91-1.16-1.09l-.59-.12c-1.18-.25-2.09-.73-2.09-2s.94-2.47,2.9-2.47A3,3,0,0,1,427.81,24l-.8.71a2.11,2.11,0,0,0-1.83-.84c-1.14,0-1.67.56-1.67,1.34,0,.55.26.9,1.14,1.08l.59.12c1.25.26,2.09.76,2.09,2.06a2.61,2.61,0,0,1-2.9,2.56A3.55,3.55,0,0,1,421.48,29.59Z"/><path class="b" d="M482.24,312.71c0-3.75,1.78-5.78,4.69-5.78a4,4,0,0,1,4,2.53l-1.52.83a2.45,2.45,0,0,0-2.47-1.75c-1.71,0-2.77,1.25-2.77,3.32v1.69c0,2.07,1.06,3.32,2.77,3.32a2.63,2.63,0,0,0,2.58-1.86l1.45.88a4.19,4.19,0,0,1-4,2.59C484,318.48,482.24,316.45,482.24,312.71Z"/><path class="b" d="M492.59,307.57v-.27c0-.53.32-.92,1-.92s1,.39,1,.92v.27c0,.53-.31.91-1,.91S492.59,308.1,492.59,307.57Zm.16,2.4h1.75v8.32h-1.75Z"/><path class="b" d="M499.3,318.29a1.65,1.65,0,0,1-1.84-1.81v-5.09h-1.3V310h.7c.58,0,.77-.24.77-.82V307.7h1.57V310H501v1.42H499.2v5.48h1.62v1.42Z"/><path class="b" d="M502.83,318.29V310h1.75v1.6h.08A2.2,2.2,0,0,1,507,310h.46v1.68h-.69c-1.37,0-2.14.46-2.14,1.33v5.31Z"/><path class="b" d="M514.93,318.29a1.43,1.43,0,0,1-1.5-1.39h-.08a2.32,2.32,0,0,1-2.44,1.58,2.39,2.39,0,0,1-2.69-2.48c0-1.65,1.24-2.49,3.56-2.49h1.5v-.71c0-1-.54-1.6-1.71-1.6a2.19,2.19,0,0,0-2,1.14l-1-.95a3.38,3.38,0,0,1,3.14-1.61c2.15,0,3.35,1.05,3.35,2.91v4.18h.88v1.42Zm-1.65-2.46v-1.2h-1.47c-1.22,0-1.81.4-1.81,1.12V316c0,.73.55,1.12,1.41,1.12C512.48,317.16,513.28,316.64,513.28,315.83Z"/><path class="b" d="M519.87,318.29a1.65,1.65,0,0,1-1.84-1.81v-5.09h-1.29V310h.7c.58,0,.77-.24.77-.82V307.7h1.57V310h1.74v1.42h-1.74v5.48h1.61v1.42Z"/><path class="b" d="M522.78,314.13c0-2.66,1.46-4.35,3.83-4.35s3.7,1.84,3.7,4.14v.66h-5.72v.27a2,2,0,0,0,2.2,2.19A2.45,2.45,0,0,0,529,315.8l1,1a3.85,3.85,0,0,1-3.39,1.68C524.24,318.48,522.78,316.79,522.78,314.13Zm1.81-.82v.12h3.88v-.16a1.88,1.88,0,0,0-1.86-2.13A2,2,0,0,0,524.59,313.31Z"/><path class="b" d="M525.33,431.76v-1.47h1.52v-8.23h-1.52v-1.47h4.87v1.47h-1.54v8.23h1.54v1.47Z"/><path class="b" d="M531.57,430.38l1.12-1a3,3,0,0,0,2.36,1.18c1,0,1.52-.41,1.52-1.12,0-.53-.32-.93-1.19-1l-.77-.09c-1.69-.21-2.73-1-2.73-2.49s1.26-2.56,3.08-2.56a3.77,3.77,0,0,1,3.11,1.33l-1.07,1a2.67,2.67,0,0,0-2-1c-1,0-1.4.42-1.4,1s.4.93,1.28,1.08l.77.09c1.82.27,2.64,1.07,2.64,2.42,0,1.6-1.3,2.67-3.3,2.67A4,4,0,0,1,531.57,430.38Z"/><path class="b" d="M539.65,427.6c0-2.66,1.51-4.36,3.83-4.36s3.82,1.7,3.82,4.36-1.5,4.35-3.82,4.35S539.65,430.26,539.65,427.6Zm5.81.7v-1.41c0-1.47-.8-2.21-2-2.21s-2,.74-2,2.21v1.41c0,1.47.8,2.21,2,2.21S545.46,429.77,545.46,428.3Z"/><path class="b" d="M548.68,427.6c0-2.66,1.37-4.36,3.77-4.36a3.22,3.22,0,0,1,3.22,2.05l-1.44.67a1.73,1.73,0,0,0-1.78-1.26c-1.28,0-1.93.88-1.93,2.16v1.49c0,1.28.65,2.16,1.93,2.16a2,2,0,0,0,2-1.38l1.32.71a3.27,3.27,0,0,1-3.28,2.11C550.05,432,548.68,430.26,548.68,427.6Z"/><path class="b" d="M557.24,421v-.28c0-.53.31-.91,1-.91s1,.38,1,.91V421c0,.52-.3.91-1,.91S557.24,421.56,557.24,421Zm.15,2.4h1.75v8.32h-1.75Z"/><path class="b" d="M563.94,431.76A1.65,1.65,0,0,1,562.1,430v-5.09h-1.3v-1.42h.71c.57,0,.77-.24.77-.82v-1.46h1.56v2.28h1.75v1.42h-1.75v5.48h1.62v1.42Z"/><path class="b" d="M567.47,431.76v-8.32h1.75V425h.08a2.2,2.2,0,0,1,2.29-1.6h.46v1.68h-.69c-1.37,0-2.14.46-2.14,1.33v5.31Z"/><path class="b" d="M579.57,431.76a1.44,1.44,0,0,1-1.5-1.39H578a2.31,2.31,0,0,1-2.43,1.58,2.38,2.38,0,0,1-2.69-2.48c0-1.65,1.23-2.5,3.55-2.5h1.5v-.7c0-1-.54-1.6-1.71-1.6a2.21,2.21,0,0,0-2,1.13l-1-.94a3.36,3.36,0,0,1,3.13-1.62c2.15,0,3.35,1.06,3.35,2.92v4.18h.88v1.42Zm-1.65-2.46v-1.21h-1.47c-1.21,0-1.81.4-1.81,1.12v.29c0,.74.55,1.12,1.41,1.12C577.13,430.62,577.92,430.11,577.92,429.3Z"/><path class="b" d="M584.52,431.76a1.65,1.65,0,0,1-1.84-1.81v-5.09h-1.3v-1.42h.7c.58,0,.77-.24.77-.82v-1.46h1.57v2.28h1.75v1.42h-1.75v5.48H586v1.42Z"/><path class="b" d="M587.43,427.6c0-2.66,1.45-4.36,3.82-4.36s3.7,1.85,3.7,4.15v.66h-5.71v.27a2,2,0,0,0,2.19,2.19,2.44,2.44,0,0,0,2.19-1.25l1,1a3.88,3.88,0,0,1-3.4,1.68C588.88,432,587.43,430.26,587.43,427.6Zm1.81-.82v.11h3.87v-.16a1.88,1.88,0,0,0-1.86-2.13A2,2,0,0,0,589.24,426.78Z"/><path class="b" d="M474.84,557.75h-7.59V556l3.57-3.19c1.12-1,1.76-1.9,1.76-2.93v-.21a1.66,1.66,0,0,0-1.81-1.74,2.09,2.09,0,0,0-2.1,1.76l-1.58-.61a3.74,3.74,0,0,1,3.82-2.72c2.28,0,3.59,1.38,3.59,3.31s-1.2,3-2.67,4.26l-2.63,2.26h5.64Z"/><path class="b" d="M476.77,553.76V552h4.43v1.78Z"/><path class="b" d="M483.31,552.16c0-3.76,1.91-5.78,4.82-5.78s4.82,2,4.82,5.78-1.91,5.78-4.82,5.78S483.31,555.92,483.31,552.16Zm7.7.88v-1.76c0-2-1.15-3.28-2.88-3.28s-2.88,1.25-2.88,3.28V553c0,2,1.15,3.28,2.88,3.28S491,555.07,491,553Z"/><path class="b" d="M497.07,553.54l-2.85-4.12h2l1.87,2.9h.05l1.92-2.9h1.86l-2.85,4.1,2.9,4.23h-2l-1.92-3H498l-2,3h-1.86Z"/><path class="b" d="M502.77,553.58c0-2.65,1.5-4.35,3.82-4.35s3.83,1.7,3.83,4.35-1.51,4.36-3.83,4.36S502.77,556.24,502.77,553.58Zm5.81.71v-1.41c0-1.47-.8-2.21-2-2.21s-2,.74-2,2.21v1.41c0,1.47.8,2.21,2,2.21S508.58,555.76,508.58,554.29Z"/><path class="b" d="M515.42,561.14c-2.72,0-3.77-.74-3.77-2a1.55,1.55,0,0,1,1.42-1.6v-.18a1.27,1.27,0,0,1-.94-1.28c0-.86.67-1.28,1.47-1.47v-.07a2.58,2.58,0,0,1-1.52-2.46c0-1.7,1.2-2.85,3.31-2.85a4,4,0,0,1,1.51.26v-.23c0-.73.35-1.18,1.09-1.18h1.28v1.41h-1.7v.33a2.62,2.62,0,0,1,1.17,2.26c0,1.68-1.22,2.82-3.33,2.82a4.46,4.46,0,0,1-1.09-.13c-.42.14-.8.41-.8.83s.43.62,1.17.62h2c2,0,2.91.87,2.91,2.31C519.65,560.26,518.42,561.14,515.42,561.14Zm1.08-3.36h-2.82a1.08,1.08,0,0,0-.58,1c0,.67.5,1.13,1.8,1.13H516c1.36,0,2-.38,2-1.15C518,558.15,517.63,557.78,516.5,557.78Zm.53-5.56v-.32c0-.94-.6-1.41-1.62-1.41s-1.62.47-1.62,1.41v.32c0,.95.59,1.41,1.62,1.41S517,553.17,517,552.22Z"/><path class="b" d="M522.72,557.75a1.59,1.59,0,0,1-1.78-1.73V545.9h1.75v10.42h1.15v1.43Z"/><path class="b" d="M530.55,556.37h-.07a2.29,2.29,0,0,1-2.34,1.57c-1.71,0-2.72-1.17-2.72-3.22v-5.3h1.75v5.08c0,1.26.53,1.93,1.6,1.93.9,0,1.78-.46,1.78-1.44v-5.57h1.74v8.33h-1.74Z"/><path class="b" d="M537.09,557.75a1.66,1.66,0,0,1-1.84-1.81v-5.09H534v-1.43h.71c.57,0,.76-.24.76-.81v-1.46H537v2.27h1.75v1.43H537v5.47h1.62v1.43Z"/><path class="b" d="M546.72,557.75a1.44,1.44,0,0,1-1.5-1.4h-.08a2.33,2.33,0,0,1-2.44,1.59,2.39,2.39,0,0,1-2.68-2.48c0-1.65,1.23-2.5,3.55-2.5h1.5v-.7c0-1-.54-1.61-1.71-1.61a2.19,2.19,0,0,0-2,1.14l-1-.94a3.36,3.36,0,0,1,3.13-1.62c2.15,0,3.35,1.06,3.35,2.91v4.18h.88v1.43Zm-1.65-2.47v-1.2H543.6c-1.22,0-1.81.4-1.81,1.12v.29c0,.73.55,1.12,1.41,1.12C544.27,556.61,545.07,556.1,545.07,555.28Z"/><path class="b" d="M549.41,557.75v-8.33h1.74V551h.08a2.2,2.2,0,0,1,2.29-1.6H554v1.68h-.68c-1.38,0-2.15.47-2.15,1.33v5.32Z"/><path class="b" d="M561.51,557.75a1.44,1.44,0,0,1-1.51-1.4h-.08a2.32,2.32,0,0,1-2.43,1.59,2.39,2.39,0,0,1-2.69-2.48c0-1.65,1.23-2.5,3.55-2.5h1.51v-.7c0-1-.55-1.61-1.72-1.61a2.21,2.21,0,0,0-2,1.14l-1-.94a3.36,3.36,0,0,1,3.14-1.62c2.14,0,3.34,1.06,3.34,2.91v4.18h.88v1.43Zm-1.65-2.47v-1.2h-1.48c-1.21,0-1.8.4-1.8,1.12v.29c0,.73.54,1.12,1.4,1.12C559.06,556.61,559.86,556.1,559.86,555.28Z"/><path class="b" d="M566.45,557.75a1.66,1.66,0,0,1-1.84-1.81v-5.09h-1.3v-1.43h.7c.58,0,.77-.24.77-.81v-1.46h1.57v2.27h1.75v1.43h-1.75v5.47H568v1.43Z"/><path class="b" d="M569.36,553.58c0-2.65,1.45-4.35,3.82-4.35s3.7,1.84,3.7,4.15V554h-5.71v.27a2,2,0,0,0,2.19,2.2,2.44,2.44,0,0,0,2.19-1.25l1,1a3.89,3.89,0,0,1-3.4,1.68C570.81,557.94,569.36,556.24,569.36,553.58Zm1.81-.81v.11H575v-.16a1.87,1.87,0,0,0-1.86-2.13A2,2,0,0,0,571.17,552.77Z"/><path class="b" d="M344.34,639.24l1.25-1.17a3.6,3.6,0,0,0,2.93,1.46c1.42,0,2.16-.7,2.16-1.78,0-.86-.45-1.36-1.74-1.61l-1-.18c-2.16-.4-3.26-1.41-3.26-3.18,0-2,1.53-3.21,3.9-3.21a4.5,4.5,0,0,1,3.78,1.72l-1.26,1.12a3.05,3.05,0,0,0-2.61-1.24c-1.28,0-2,.53-2,1.51s.58,1.33,1.78,1.57l1,.21c2.22.43,3.23,1.42,3.23,3.2,0,2.08-1.48,3.47-4.05,3.47A4.94,4.94,0,0,1,344.34,639.24Z"/><path class="b" d="M359.56,639.56h-.06a2.29,2.29,0,0,1-2.34,1.57c-1.71,0-2.72-1.17-2.72-3.22v-5.29h1.74v5.07c0,1.26.53,1.94,1.6,1.94.9,0,1.78-.47,1.78-1.44v-5.57h1.74v8.32h-1.74Z"/><path class="b" d="M363.24,636.78c0-2.66,1.37-4.36,3.78-4.36a3.2,3.2,0,0,1,3.21,2.05l-1.44.67a1.72,1.72,0,0,0-1.77-1.26,1.89,1.89,0,0,0-1.94,2.16v1.49a1.89,1.89,0,0,0,1.94,2.16,2,2,0,0,0,2-1.38l1.33.71a3.28,3.28,0,0,1-3.28,2.11C364.61,641.13,363.24,639.43,363.24,636.78Z"/><path class="b" d="M371.3,636.78c0-2.66,1.38-4.36,3.78-4.36a3.23,3.23,0,0,1,3.22,2.05l-1.44.67a1.74,1.74,0,0,0-1.78-1.26,1.89,1.89,0,0,0-1.94,2.16v1.49a1.89,1.89,0,0,0,1.94,2.16,2,2,0,0,0,1.95-1.38l1.33.71a3.27,3.27,0,0,1-3.28,2.11C372.68,641.13,371.3,639.43,371.3,636.78Z"/><path class="b" d="M379.86,630.21v-.27c0-.53.32-.91,1-.91s1,.38,1,.91v.27c0,.53-.31.92-1,.92S379.86,630.74,379.86,630.21Zm.16,2.41h1.75v8.32H380Z"/><path class="b" d="M384.26,640.94v-8.32H386V634h.08a2.31,2.31,0,0,1,2.33-1.57c1.7,0,2.71,1.19,2.71,3.24v5.28h-1.75v-5.06c0-1.3-.49-2-1.56-2s-1.81.46-1.81,1.44v5.57Z"/><path class="b" d="M398.52,632.62h1.68l-3.5,10a2,2,0,0,1-2.2,1.55h-1v-1.43h1.41l.48-1.4-3-8.69h1.74l1.67,4.89.48,1.81h.08l.53-1.81Z"/><path class="b" d="M403.42,640.94a1.58,1.58,0,0,1-1.78-1.73V629.09h1.74v10.42h1.16v1.43Z"/><path class="b" d="M405.78,637v-1.77h4.43V637Z"/><path class="b" d="M412.33,635.35c0-3.74,1.77-5.78,4.69-5.78a4,4,0,0,1,4,2.53l-1.52.83a2.45,2.45,0,0,0-2.46-1.74c-1.72,0-2.77,1.25-2.77,3.31v1.7c0,2.07,1.05,3.31,2.77,3.31a2.62,2.62,0,0,0,2.57-1.85l1.46.88a4.21,4.21,0,0,1-4,2.59C414.1,641.13,412.33,639.1,412.33,635.35Z"/><path class="b" d="M422.28,636.78c0-2.66,1.5-4.36,3.82-4.36s3.83,1.7,3.83,4.36-1.51,4.35-3.83,4.35S422.28,639.43,422.28,636.78Zm5.81.7v-1.41c0-1.47-.8-2.21-2-2.21s-2,.74-2,2.21v1.41c0,1.47.8,2.21,2,2.21S428.09,639,428.09,637.48Z"/><path class="b" d="M439,640.94l-1-3h-4.18l-1,3H431l3.81-11.17h2.27l3.81,11.17Zm-3.06-9.51h-.08l-1.62,4.93h3.3Z"/><path class="b" d="M209,593.09l1.25-1.17a3.58,3.58,0,0,0,2.93,1.46c1.42,0,2.16-.71,2.16-1.78,0-.87-.45-1.36-1.75-1.62l-1-.17c-2.16-.4-3.26-1.41-3.26-3.19,0-2,1.53-3.2,3.9-3.2a4.52,4.52,0,0,1,3.78,1.71l-1.26,1.12a3.07,3.07,0,0,0-2.61-1.23c-1.28,0-2,.53-2,1.5s.58,1.33,1.78,1.57l1,.21c2.22.43,3.23,1.43,3.23,3.2,0,2.08-1.49,3.48-4,3.48A4.94,4.94,0,0,1,209,593.09Z"/><path class="b" d="M224.22,593.41h-.06a2.3,2.3,0,0,1-2.34,1.57c-1.71,0-2.72-1.17-2.72-3.22v-5.3h1.74v5.07c0,1.27.53,1.94,1.6,1.94.9,0,1.78-.46,1.78-1.44v-5.57H226v8.32h-1.74Z"/><path class="b" d="M227.9,590.62c0-2.66,1.37-4.35,3.77-4.35a3.21,3.21,0,0,1,3.22,2.05l-1.44.67a1.73,1.73,0,0,0-1.78-1.27c-1.28,0-1.93.88-1.93,2.17v1.48c0,1.28.65,2.17,1.93,2.17a2,2,0,0,0,2-1.38l1.33.7a3.3,3.3,0,0,1-3.29,2.12C229.27,595,227.9,593.28,227.9,590.62Z"/><path class="b" d="M236,590.62c0-2.66,1.38-4.35,3.78-4.35a3.21,3.21,0,0,1,3.22,2.05l-1.45.67a1.72,1.72,0,0,0-1.77-1.27c-1.28,0-1.94.88-1.94,2.17v1.48c0,1.28.66,2.17,1.94,2.17a2,2,0,0,0,1.95-1.38l1.33.7a3.28,3.28,0,0,1-3.28,2.12C237.34,595,236,593.28,236,590.62Z"/><path class="b" d="M244.52,584.06v-.27c0-.53.32-.91,1-.91s1,.38,1,.91v.27c0,.53-.31.91-1,.91S244.52,584.59,244.52,584.06Zm.16,2.4h1.74v8.32h-1.74Z"/><path class="b" d="M248.92,594.78v-8.32h1.75v1.38h.08a2.31,2.31,0,0,1,2.33-1.57c1.7,0,2.71,1.18,2.71,3.23v5.28H254v-5c0-1.3-.49-2-1.57-2-.91,0-1.8.47-1.8,1.44v5.57Z"/><path class="b" d="M264.3,594.78a1.43,1.43,0,0,1-1.5-1.39h-.09a2.31,2.31,0,0,1-2.43,1.59,2.4,2.4,0,0,1-2.69-2.49c0-1.64,1.24-2.49,3.56-2.49h1.5v-.71c0-1-.54-1.6-1.71-1.6a2.21,2.21,0,0,0-2,1.14l-1-1a3.39,3.39,0,0,1,3.14-1.61c2.14,0,3.35,1.05,3.35,2.91v4.18h.88v1.42Zm-1.65-2.46v-1.2h-1.47c-1.22,0-1.81.4-1.81,1.12v.29c0,.73.54,1.12,1.41,1.12C261.85,593.65,262.65,593.13,262.65,592.32Z"/><path class="b" d="M269.24,594.78A1.65,1.65,0,0,1,267.4,593v-5.09h-1.3v-1.42h.71c.57,0,.77-.24.77-.82v-1.45h1.56v2.27h1.75v1.42h-1.75v5.48h1.62v1.42Z"/><path class="b" d="M272.15,590.62c0-2.66,1.46-4.35,3.83-4.35s3.69,1.84,3.69,4.14v.66H274v.27a2,2,0,0,0,2.19,2.2,2.46,2.46,0,0,0,2.2-1.25l1,1A3.87,3.87,0,0,1,276,595C273.61,595,272.15,593.28,272.15,590.62Zm1.81-.81v.11h3.87v-.16c0-1.28-.7-2.13-1.85-2.13A2,2,0,0,0,274,589.81Z"/><path class="b" d="M149.72,488.26V477.09h7v1.6h-5.17v3.1h4.6v1.6h-4.6v4.87Z"/><path class="b" d="M163.36,486.88h-.07a2.28,2.28,0,0,1-2.33,1.57c-1.72,0-2.73-1.17-2.73-3.22v-5.29H160V485c0,1.26.53,1.94,1.6,1.94.9,0,1.78-.47,1.78-1.44v-5.57h1.74v8.32h-1.74Z"/><path class="b" d="M167.59,488.26v-8.32h1.75v1.37h.08a2.22,2.22,0,0,1,2.22-1.57,2.46,2.46,0,0,1,2.47,1.7h0a2.5,2.5,0,0,1,2.51-1.7c1.65,0,2.63,1.19,2.63,3.24v5.28h-1.75v-5.08c0-1.28-.48-1.93-1.54-1.93-.88,0-1.69.46-1.69,1.42v5.59h-1.75v-5.08c0-1.29-.49-1.93-1.52-1.93a1.52,1.52,0,0,0-1.71,1.42v5.59Z"/><path class="b" d="M187.8,488.26a1.44,1.44,0,0,1-1.5-1.39h-.08a2.31,2.31,0,0,1-2.43,1.58A2.39,2.39,0,0,1,181.1,486c0-1.65,1.23-2.5,3.55-2.5h1.51v-.7c0-1-.55-1.6-1.72-1.6a2.21,2.21,0,0,0-2,1.13l-1-.94a3.36,3.36,0,0,1,3.13-1.62c2.15,0,3.35,1.06,3.35,2.92v4.17h.88v1.43Zm-1.64-2.47v-1.2h-1.48c-1.21,0-1.81.4-1.81,1.12V486c0,.74.55,1.12,1.41,1.12C185.36,487.12,186.16,486.61,186.16,485.79Z"/><path class="b" d="M190.49,488.26v-8.32h1.74v1.6h.08a2.2,2.2,0,0,1,2.29-1.6h.47v1.68h-.69c-1.38,0-2.15.46-2.15,1.33v5.31Z"/><path class="b" d="M202.59,488.26a1.45,1.45,0,0,1-1.51-1.39H201a2.31,2.31,0,0,1-2.43,1.58,2.39,2.39,0,0,1-2.69-2.48c0-1.65,1.23-2.5,3.55-2.5h1.51v-.7c0-1-.54-1.6-1.71-1.6a2.23,2.23,0,0,0-2,1.13l-1-.94a3.37,3.37,0,0,1,3.14-1.62c2.14,0,3.34,1.06,3.34,2.92v4.17h.88v1.43Zm-1.65-2.47v-1.2h-1.47c-1.22,0-1.81.4-1.81,1.12V486c0,.74.54,1.12,1.41,1.12C200.14,487.12,200.94,486.61,200.94,485.79Z"/><path class="b" d="M207.53,488.26a1.65,1.65,0,0,1-1.84-1.81v-5.09h-1.3v-1.42h.71c.57,0,.77-.24.77-.82v-1.46h1.56v2.28h1.75v1.42h-1.75v5.47h1.62v1.43Z"/><path class="b" d="M210.44,484.1c0-2.66,1.46-4.36,3.83-4.36s3.69,1.84,3.69,4.15v.66h-5.71v.27a2,2,0,0,0,2.19,2.19,2.44,2.44,0,0,0,2.2-1.25l1,1a3.85,3.85,0,0,1-3.39,1.68C211.9,488.45,210.44,486.76,210.44,484.1Zm1.81-.82v.11h3.87v-.16c0-1.28-.7-2.13-1.85-2.13A2,2,0,0,0,212.25,483.28Z"/><path class="b" d="M174,372.12h2.15l3,5.68h.1l3-5.68h2.05v11.17h-1.73v-8.55h-.08l-.88,1.81L179.17,381l-2.45-4.47-.88-1.81h-.08v8.55H174Z"/><path class="b" d="M193,383.29a1.44,1.44,0,0,1-1.51-1.39h-.08a2.31,2.31,0,0,1-2.43,1.58,2.39,2.39,0,0,1-2.69-2.48c0-1.65,1.23-2.49,3.55-2.49h1.51v-.71c0-1-.55-1.6-1.71-1.6a2.21,2.21,0,0,0-2,1.14l-1-.95a3.36,3.36,0,0,1,3.14-1.61c2.14,0,3.34,1.05,3.34,2.91v4.18H194v1.42Zm-1.65-2.46v-1.2h-1.47c-1.22,0-1.81.4-1.81,1.12V381c0,.74.54,1.12,1.41,1.12C190.58,382.15,191.38,381.64,191.38,380.83Z"/><path class="b" d="M197.49,383.29a1.58,1.58,0,0,1-1.78-1.73V371.45h1.75v10.42h1.15v1.42Z"/><path class="b" d="M206.37,383.29a1.44,1.44,0,0,1-1.5-1.39h-.08a2.32,2.32,0,0,1-2.44,1.58,2.39,2.39,0,0,1-2.69-2.48c0-1.65,1.24-2.49,3.56-2.49h1.5v-.71c0-1-.54-1.6-1.71-1.6a2.21,2.21,0,0,0-2,1.14l-1-.95a3.38,3.38,0,0,1,3.14-1.61c2.15,0,3.35,1.05,3.35,2.91v4.18h.88v1.42Zm-1.65-2.46v-1.2h-1.47c-1.22,0-1.81.4-1.81,1.12V381c0,.74.54,1.12,1.41,1.12C203.92,382.15,204.72,381.64,204.72,380.83Z"/><path class="b" d="M211.31,383.29a1.65,1.65,0,0,1-1.84-1.81v-5.09h-1.3V375h.71c.58,0,.77-.24.77-.82v-1.46h1.57V375H213v1.42h-1.74v5.48h1.61v1.42Z"/><path class="b" d="M214.22,379.13c0-2.66,1.46-4.35,3.83-4.35s3.7,1.84,3.7,4.14v.66H216v.27a2,2,0,0,0,2.19,2.19,2.44,2.44,0,0,0,2.2-1.25l1,1a3.85,3.85,0,0,1-3.39,1.68C215.68,383.48,214.22,381.79,214.22,379.13Zm1.81-.82v.11h3.88v-.16a1.87,1.87,0,0,0-1.86-2.12A2,2,0,0,0,216,378.31Z"/><path class="b" d="M252,279.44c0-3.76,1.9-5.78,4.82-5.78s4.81,2,4.81,5.78-1.9,5.78-4.81,5.78S252,283.2,252,279.44Zm7.7.88v-1.76c0-2-1.15-3.28-2.88-3.28s-2.88,1.25-2.88,3.28v1.76c0,2,1.15,3.28,2.88,3.28S259.74,282.35,259.74,280.32Z"/><path class="b" d="M265.8,280.82,263,276.7h2l1.87,2.9h.05l1.92-2.9h1.86l-2.85,4.1,2.89,4.23h-2l-1.92-3h0l-2,3h-1.86Z"/><path class="b" d="M278.38,285a1.44,1.44,0,0,1-1.51-1.4h-.08a2.31,2.31,0,0,1-2.43,1.59,2.39,2.39,0,0,1-2.69-2.48c0-1.65,1.23-2.5,3.55-2.5h1.51v-.7c0-1-.55-1.6-1.71-1.6a2.23,2.23,0,0,0-2,1.13l-1-.94a3.37,3.37,0,0,1,3.14-1.62c2.14,0,3.34,1.06,3.34,2.91v4.18h.88V285Zm-1.65-2.47v-1.2h-1.47c-1.22,0-1.81.4-1.81,1.12v.29c0,.74.54,1.12,1.41,1.12C275.93,283.89,276.73,283.38,276.73,282.56Z"/><path class="b" d="M282.84,285a1.59,1.59,0,0,1-1.78-1.73V273.18h1.75V283.6H284V285Z"/><path class="b" d="M285.06,280.86c0-2.65,1.51-4.35,3.83-4.35s3.82,1.7,3.82,4.35-1.5,4.36-3.82,4.36S285.06,283.52,285.06,280.86Zm5.81.71v-1.41c0-1.47-.8-2.21-2-2.21s-2,.74-2,2.21v1.41c0,1.47.8,2.21,2,2.21S290.87,283,290.87,281.57Z"/><path class="b" d="M300.74,285a1.44,1.44,0,0,1-1.5-1.4h-.08a2.32,2.32,0,0,1-2.43,1.59,2.39,2.39,0,0,1-2.69-2.48c0-1.65,1.23-2.5,3.55-2.5h1.51v-.7c0-1-.55-1.6-1.72-1.6a2.21,2.21,0,0,0-2,1.13l-1-.94a3.36,3.36,0,0,1,3.14-1.62c2.14,0,3.34,1.06,3.34,2.91v4.18h.88V285Zm-1.64-2.47v-1.2h-1.48c-1.21,0-1.81.4-1.81,1.12v.29c0,.74.55,1.12,1.41,1.12C298.3,283.89,299.1,283.38,299.1,282.56Z"/><path class="b" d="M302.87,280.86c0-2.65,1.38-4.35,3.78-4.35a3.23,3.23,0,0,1,3.22,2.05l-1.45.67a1.71,1.71,0,0,0-1.77-1.26,1.89,1.89,0,0,0-1.94,2.16v1.49a1.89,1.89,0,0,0,1.94,2.16,2,2,0,0,0,2-1.38l1.33.71a3.28,3.28,0,0,1-3.28,2.11C304.25,285.22,302.87,283.52,302.87,280.86Z"/><path class="b" d="M310.93,280.86c0-2.65,1.46-4.35,3.83-4.35s3.7,1.84,3.7,4.15v.65h-5.72v.27a2,2,0,0,0,2.2,2.2,2.44,2.44,0,0,0,2.19-1.25l1,1a3.85,3.85,0,0,1-3.39,1.68C312.39,285.22,310.93,283.52,310.93,280.86Zm1.81-.81v.11h3.88V280a1.88,1.88,0,0,0-1.86-2.13A2,2,0,0,0,312.74,280.05Z"/><path class="b" d="M322.7,285a1.66,1.66,0,0,1-1.85-1.81v-5.09h-1.29V276.7h.7c.58,0,.77-.24.77-.81v-1.46h1.57v2.27h1.74v1.43H322.6v5.47h1.62V285Z"/><path class="b" d="M332.33,285a1.45,1.45,0,0,1-1.51-1.4h-.08a2.31,2.31,0,0,1-2.43,1.59,2.39,2.39,0,0,1-2.69-2.48c0-1.65,1.23-2.5,3.55-2.5h1.51v-.7c0-1-.54-1.6-1.71-1.6a2.23,2.23,0,0,0-2,1.13l-1-.94a3.37,3.37,0,0,1,3.14-1.62c2.14,0,3.34,1.06,3.34,2.91v4.18h.88V285Zm-1.65-2.47v-1.2h-1.47c-1.22,0-1.81.4-1.81,1.12v.29c0,.74.54,1.12,1.41,1.12C329.88,283.89,330.68,283.38,330.68,282.56Z"/><path class="b" d="M337.27,285a1.66,1.66,0,0,1-1.84-1.81v-5.09h-1.3V276.7h.71c.57,0,.77-.24.77-.81v-1.46h1.56v2.27h1.75v1.43h-1.75v5.47h1.62V285Z"/><path class="b" d="M340.18,280.86c0-2.65,1.46-4.35,3.83-4.35s3.69,1.84,3.69,4.15v.65H342v.27a2,2,0,0,0,2.19,2.2,2.44,2.44,0,0,0,2.2-1.25l1,1a3.85,3.85,0,0,1-3.39,1.68C341.64,285.22,340.18,283.52,340.18,280.86Zm1.81-.81v.11h3.87V280c0-1.28-.7-2.13-1.85-2.13A2,2,0,0,0,342,280.05Z"/><path class="b" d="M604.65,522.87c0-3.74,1.78-5.78,4.69-5.78a4,4,0,0,1,4,2.53l-1.52.83a2.46,2.46,0,0,0-2.47-1.74c-1.71,0-2.77,1.25-2.77,3.31v1.7c0,2.06,1.06,3.31,2.77,3.31a2.63,2.63,0,0,0,2.58-1.85l1.46.88a4.23,4.23,0,0,1-4,2.59C606.43,528.65,604.65,526.62,604.65,522.87Z"/><path class="b" d="M614.59,522.87c0-3.76,1.9-5.78,4.82-5.78s4.81,2,4.81,5.78-1.9,5.78-4.81,5.78S614.59,526.63,614.59,522.87Zm7.7.88V522c0-2-1.16-3.28-2.88-3.28s-2.88,1.25-2.88,3.28v1.76c0,2,1.15,3.28,2.88,3.28S622.29,525.78,622.29,523.75Z"/><path class="b" d="M630.14,530.46h-4.46v-1.12l1.93-1.54c.71-.54,1-.94,1-1.46v-.06c0-.51-.37-.77-.9-.77a1.07,1.07,0,0,0-1.09.85l-1.1-.42a2.25,2.25,0,0,1,2.3-1.49c1.36,0,2.15.74,2.15,1.78s-.74,1.67-1.65,2.29l-1.3.91h3.09Z"/><path class="b" d="M315.53,164.17c0-3.74,1.78-5.78,4.69-5.78a4,4,0,0,1,4,2.53l-1.52.83a2.45,2.45,0,0,0-2.47-1.74c-1.71,0-2.76,1.25-2.76,3.31V165c0,2.07,1.05,3.31,2.76,3.31a2.62,2.62,0,0,0,2.58-1.85l1.46.88a4.22,4.22,0,0,1-4,2.59C317.31,170,315.53,167.92,315.53,164.17Z"/><path class="b" d="M325.47,164.17c0-3.76,1.91-5.78,4.82-5.78s4.82,2,4.82,5.78S333.2,170,330.29,170,325.47,167.93,325.47,164.17Zm7.7.88v-1.76c0-2-1.15-3.28-2.88-3.28s-2.88,1.25-2.88,3.28v1.76c0,2,1.15,3.28,2.88,3.28S333.17,167.09,333.17,165.05Z"/><path class="b" d="M341,171.76h-4.46v-1.12l1.94-1.54c.7-.54,1-.94,1-1.46v-.06c0-.51-.37-.77-.9-.77a1.06,1.06,0,0,0-1.08.85l-1.11-.42a2.25,2.25,0,0,1,2.31-1.48c1.36,0,2.14.73,2.14,1.77s-.74,1.67-1.65,2.29l-1.29.91H341Z"/><path class="c" d="M395.36,224.74s-.25,31.58,37.89,43.89c28.1,9.08,44.33,0,52.28-7.58"/><polygon class="b" points="491.71 253.34 487.21 267.69 484.94 261.52 478.44 260.43 491.71 253.34"/><path class="c" d="M556,396.51a190.54,190.54,0,0,0-24.48-52.44"/><polygon class="b" points="558.51 406.07 560.37 391.13 555.74 395.81 549.38 394.1 558.51 406.07"/><polygon class="b" points="525.8 335.99 538.43 344.16 531.87 344.7 529.1 350.67 525.8 335.99"/><path class="c" d="M548.93,524.18a190.72,190.72,0,0,0,14.47-63.93"/><polygon class="b" points="544.88 533.2 555.73 522.77 549.18 523.48 545.32 518.15 544.88 533.2"/><polygon class="b" points="563.65 450.37 568.95 464.45 563.35 460.99 557.57 464.13 563.65 450.37"/><path class="c" d="M272.28,614.08a190.45,190.45,0,0,0,53.27,22.28"/><polygon class="b" points="263.98 608.72 272.66 621.01 272.94 614.43 278.78 611.41 263.98 608.72"/><polygon class="b" points="335.2 638.5 320.36 640.97 324.84 636.15 322.88 629.87 335.2 638.5"/><path class="c" d="M192,516.46a191.61,191.61,0,0,0,26.19,48.34"/><polygon class="b" points="188.86 507.09 188.02 522.12 192.33 517.14 198.78 518.41 188.86 507.09"/><polygon class="b" points="224.33 572.57 211.3 565.05 217.82 564.18 220.29 558.08 224.33 572.57"/><path class="c" d="M185,408.74a267,267,0,0,0-4.52,44.74"/><polygon class="b" points="187.26 399.12 178.6 411.43 184.88 409.48 189.69 413.97 187.26 399.12"/><polygon class="b" points="180.33 463.37 174.98 449.3 180.59 452.75 186.36 449.58 180.33 463.37"/><rect class="f" x="382.69" y="255.08" width="9.76" height="8.15" transform="translate(14.56 -20.55) rotate(3.1)"/><rect class="f" x="155.72" y="316.32" width="9.76" height="8.15" transform="translate(-103.18 77.78) rotate(-20.77)"/><path class="c" d="M472.27,287a192.17,192.17,0,0,0-150.68-21.6"/><polygon class="b" points="480.56 292.39 471.92 280.07 471.62 286.65 465.76 289.65 480.56 292.39"/><path class="g" d="M324.55,178.49l-1.26-2.33h-.05v8.71H322V174.4h1.46l3.82,6.4,1.26,2.32h.05V174.4h1.23v10.47h-1.46Z"/><path class="g" d="M339.17,184.87l-1.05-3.09h-4.23l-1.05,3.09h-1.27l3.66-10.47h1.6l3.66,10.47Zm-3.13-9.3H336l-1.77,5.1h3.62Z"/><path class="g" d="M342.23,174.4h3.51c2.61,0,4.29,1.75,4.29,5.24s-1.68,5.23-4.29,5.23h-3.51Zm3.51,9.36c1.73,0,2.94-1.2,2.94-3.27v-1.71c0-2.07-1.21-3.27-2.94-3.27h-2.25v8.25Z"/><path class="g" d="M358.85,180.13h-5.29v4.74H352.3V174.4h1.26V179h5.29V174.4h1.26v10.47h-1.26Z"/><path class="g" d="M329.9,131.7l-1.26-2.33h0v8.72h-1.23V127.62h1.45l3.83,6.39,1.26,2.32h0v-8.71h1.23v10.47h-1.45Z"/><path class="g" d="M344.53,138.09l-1-3.09h-4.23l-1.05,3.09h-1.28l3.66-10.47h1.61l3.66,10.47Zm-3.14-9.3h-.07l-1.77,5.1h3.61Z"/><path class="g" d="M347.59,127.62h3.51c2.61,0,4.29,1.74,4.29,5.23s-1.68,5.24-4.29,5.24h-3.51ZM351.1,137c1.72,0,2.94-1.2,2.94-3.27V132c0-2.07-1.22-3.27-2.94-3.27h-2.25V137Z"/><path class="g" d="M358.55,132.55v-1.83h-1.71v-.59h1.71V128.3h.66v1.83h1.71v.59h-1.71v1.83Z"/><path class="c" d="M580.79,477c-10.89,1.84-26.09,7.37-19.5,24,3.35,8.47,15.93,11.12,26.81,11"/><polygon class="b" points="590.64 476.06 576.19 471.86 580.07 477.17 577.38 483.18 590.64 476.06"/><polygon class="b" points="597.95 511.06 584.51 517.84 587.36 511.9 583.61 506.5 597.95 511.06"/><path class="c" d="M313.22,658c2-9.52,1.93-23.72-13.45-30.08s-28.33,2.58-35.51,9.88"/><polygon class="b" points="310.23 667.46 319.71 655.78 313.31 657.29 308.82 652.48 310.23 667.46"/><polygon class="b" points="257.98 645.47 262.6 631.15 264.83 637.34 271.31 638.48 257.98 645.47"/><path class="c" d="M198.71,572.69c7.23-6.13,15.21-16.87,5.18-30.07-10.17-13.4-25.76-12.07-35.64-9.4"/><polygon class="b" points="190.54 578.25 205.21 574.9 199.23 572.15 198.66 565.59 190.54 578.25"/><polygon class="b" points="158.98 536.64 170.19 526.61 168.98 533.08 174.01 537.34 158.98 536.64"/><path class="c" d="M158.49,437.82c9.74-1.28,23.42-6,25.3-22.53"/><polygon class="b" points="148.62 438.13 162.79 443.19 159.23 437.65 162.27 431.82 148.62 438.13"/><path class="c" d="M417.69,235.77S411,260.1,430.38,267.62"/><path class="c" d="M374.5,132.11H380c8.41,0,15.23,6.19,15.23,13.82v11c0,7.64-6.82,12.83-15.23,12.83h-5.5"/><polygon class="b" points="364.62 132.11 378.54 137.8 375.24 132.11 378.54 126.42 364.62 132.11"/><polygon class="b" points="364.62 169.76 378.54 164.07 375.24 169.76 378.54 175.45 364.62 169.76"/><path class="c" d="M288.39,253.54C269,171.43,273,148.64,342.24,104.16"/><polygon class="b" points="290.69 263.15 293.16 248.31 288.34 252.79 282.06 250.83 290.69 263.15"/><polygon class="b" points="350.59 98.88 341.93 111.18 341.65 104.6 335.79 101.59 350.59 98.88"/><path class="c" d="M169.5,346.48C114.37,200.7,174.16,147.76,335.14,98.4"/><polygon class="b" points="173.09 355.69 173.42 340.64 169.29 345.77 162.79 344.72 173.09 355.69"/><polygon class="b" points="344.59 95.54 333 105.13 334.45 98.71 329.6 94.26 344.59 95.54"/><path class="b" d="M230.9,664.78c0-3.74,1.78-5.77,4.69-5.77a4,4,0,0,1,4,2.53l-1.52.83a2.45,2.45,0,0,0-2.47-1.75c-1.71,0-2.77,1.25-2.77,3.32v1.69c0,2.07,1.06,3.32,2.77,3.32a2.63,2.63,0,0,0,2.58-1.86l1.46.88a4.21,4.21,0,0,1-4,2.59C232.68,670.56,230.9,668.53,230.9,664.78Z"/><path class="b" d="M240.85,666.21c0-2.66,1.51-4.35,3.83-4.35s3.83,1.69,3.83,4.35-1.51,4.35-3.83,4.35S240.85,668.87,240.85,666.21Zm5.81.7v-1.4c0-1.48-.8-2.21-2-2.21s-2,.73-2,2.21v1.4c0,1.48.8,2.21,2,2.21S246.66,668.39,246.66,666.91Z"/><path class="b" d="M257.55,670.37l-1-3h-4.18l-1,3h-1.84l3.81-11.17h2.27l3.81,11.17Zm-3.06-9.51h-.08l-1.62,4.93h3.3Z"/><path class="g" d="M231.55,652.13h0c-.26,1-1.32,1.71-2.91,1.71-2.57,0-4.35-1.9-4.35-5.41S226,643,228.7,643a4,4,0,0,1,3.81,2.3l-1,.63a2.89,2.89,0,0,0-2.78-1.8c-1.84,0-3.1,1.36-3.1,3.43v1.7a3.13,3.13,0,0,0,3.22,3.45c1.46,0,2.67-.75,2.67-2.3v-1h-2.31v-1.11h3.54v5.38h-1.17Z"/><path class="g" d="M238.15,644.3v9.36h-1.26V644.3h-3.33v-1.11h7.92v1.11Z"/><path class="g" d="M243.21,653.66V643.19h4.17a3,3,0,0,1,0,6h-2.91v4.47Zm1.26-5.58h2.91a1.4,1.4,0,0,0,1.57-1.5v-.78a1.4,1.4,0,0,0-1.57-1.5h-2.91Z"/><path class="g" d="M286.09,680.44h0c-.25,1-1.32,1.71-2.91,1.71-2.56,0-4.35-1.9-4.35-5.41s1.77-5.42,4.46-5.42a4,4,0,0,1,3.8,2.3l-1,.63a2.89,2.89,0,0,0-2.77-1.8c-1.85,0-3.11,1.36-3.11,3.43v1.7a3.13,3.13,0,0,0,3.22,3.45c1.46,0,2.67-.75,2.67-2.3v-1h-2.31v-1.11h3.54V682h-1.17Z"/><path class="g" d="M289.74,671.5h3.51c2.61,0,4.29,1.74,4.29,5.24s-1.68,5.23-4.29,5.23h-3.51Zm3.51,9.36c1.72,0,2.94-1.2,2.94-3.27v-1.71c0-2.07-1.22-3.27-2.94-3.27H291v8.25Z"/><path class="g" d="M299.8,682V671.5H304a3,3,0,0,1,0,6h-2.91V682Zm1.26-5.58H304a1.41,1.41,0,0,0,1.58-1.5v-.78a1.41,1.41,0,0,0-1.58-1.5h-2.91Z"/><path class="g" d="M315,681v-3.13H312v-1H315v-3.14h1.14v3.14H319v1h-2.92V681Z"/><path class="g" d="M325,682V671.5h4.17a3,3,0,0,1,0,6h-2.91V682Zm1.26-5.58h2.91a1.41,1.41,0,0,0,1.58-1.5v-.78a1.41,1.41,0,0,0-1.58-1.5h-2.91Z"/><path class="g" d="M333.33,678v-.11c0-.24.13-.39.43-.39s.43.15.43.39V678c0,.24-.13.4-.43.4S333.33,678.24,333.33,678Zm.08,1.46h.7V684h-.7Z"/><path class="a" d="M439.12,588.37v-1.09h2.39v-7.5l-2.3,1.5-.55-.88,2.74-1.8h1.37v8.68H445v1.09Z"/><path class="a" d="M446.48,587.77v-.25c0-.49.31-.77.9-.77s.89.28.89.77v.25c0,.49-.31.77-.89.77S446.48,588.26,446.48,587.77Z"/><path class="a" d="M455.94,588.37h-5.89v-1.29l2.91-3a3.72,3.72,0,0,0,1.36-2.53v-.38c0-1.08-.49-1.61-1.47-1.61a1.71,1.71,0,0,0-1.75,1.48l-1.13-.44a2.9,2.9,0,0,1,2.93-2.17,2.44,2.44,0,0,1,2.76,2.78c0,1.29-.43,2.07-1.9,3.63l-2.33,2.43h4.51Z"/><path class="a" d="M457.62,587.77v-.25c0-.49.31-.77.89-.77s.9.28.9.77v.25c0,.49-.31.77-.9.77S457.62,588.26,457.62,587.77Z"/><path class="a" d="M462.47,588.37l3.26-8.67h-3.48v1.8h-1.12v-2.9H467v1.12l-3.17,8.65Z"/><path class="a" d="M468.76,587.77v-.25c0-.49.3-.77.89-.77s.9.28.9.77v.25c0,.49-.31.77-.9.77S468.76,588.26,468.76,587.77Z"/><path class="a" d="M472.53,588.37v-1.09h2.4v-7.5l-2.31,1.5-.55-.88,2.74-1.8h1.38v8.68h2.18v1.09Z"/><path class="a" d="M480.09,588.37v-1.09h2.39v-7.5l-2.31,1.5-.54-.88,2.74-1.8h1.37v8.68h2.18v1.09Z"/><path class="b" d="M526,650.38c0-3.74,1.78-5.77,4.69-5.77a4,4,0,0,1,4,2.53l-1.53.83a2.43,2.43,0,0,0-2.46-1.75c-1.71,0-2.77,1.25-2.77,3.32v1.69c0,2.07,1.06,3.32,2.77,3.32a2.63,2.63,0,0,0,2.58-1.86l1.45.88a4.19,4.19,0,0,1-4,2.59C527.73,656.16,526,654.13,526,650.38Z"/><path class="b" d="M535.88,650.38c0-3.76,1.91-5.77,4.82-5.77s4.82,2,4.82,5.77-1.9,5.78-4.82,5.78S535.88,654.15,535.88,650.38Zm7.7.89V649.5c0-2-1.15-3.28-2.88-3.28s-2.88,1.25-2.88,3.28v1.77c0,2,1.15,3.28,2.88,3.28S543.58,653.3,543.58,651.27Z"/><path class="b" d="M551.44,658H547v-1.12l1.94-1.54c.71-.54,1-.94,1-1.45v-.07c0-.51-.36-.76-.89-.76a1.06,1.06,0,0,0-1.09.84l-1.1-.41a2.24,2.24,0,0,1,2.3-1.49c1.36,0,2.15.74,2.15,1.78s-.74,1.66-1.65,2.28l-1.3.92h3.09Z"/><path class="b" d="M556.88,603.86c0-3.74,1.78-5.78,4.7-5.78a4,4,0,0,1,4,2.53l-1.52.83a2.45,2.45,0,0,0-2.46-1.74c-1.72,0-2.77,1.25-2.77,3.31v1.7c0,2.06,1.05,3.31,2.77,3.31a2.62,2.62,0,0,0,2.57-1.85l1.46.88a4.21,4.21,0,0,1-4,2.59C558.66,609.64,556.88,607.61,556.88,603.86Z"/><path class="b" d="M566.84,605.29c0-2.66,1.5-4.36,3.82-4.36s3.83,1.7,3.83,4.36-1.51,4.35-3.83,4.35S566.84,607.94,566.84,605.29Zm5.81.7v-1.41c0-1.47-.8-2.21-2-2.21s-2,.74-2,2.21V606c0,1.47.8,2.21,2,2.21S572.65,607.46,572.65,606Z"/><path class="b" d="M583.53,609.45l-1-3h-4.18l-1,3h-1.84l3.81-11.17h2.27l3.81,11.17Zm-3.06-9.51h-.08l-1.62,4.93h3.3Z"/><path class="c" d="M459.57,620.9a192.52,192.52,0,0,0,56-43.54"/><polygon class="b" points="450.66 625.19 465.68 624.19 460.21 620.53 460.68 613.97 450.66 625.19"/><path class="g" d="M530.84,631.54l-1.26-2.33h0v8.72h-1.23V627.46h1.45l3.83,6.39,1.26,2.32h0v-8.71h1.23v10.47h-1.45Z"/><path class="g" d="M545.46,637.93l-1-3.09h-4.23l-1.05,3.09h-1.28l3.66-10.47h1.61l3.66,10.47Zm-3.13-9.3h-.07l-1.77,5.1h3.61Z"/><path class="g" d="M548.53,627.46H552c2.61,0,4.29,1.74,4.29,5.23s-1.68,5.24-4.29,5.24h-3.51Zm3.51,9.36c1.72,0,2.94-1.2,2.94-3.27v-1.71c0-2.07-1.22-3.27-2.94-3.27h-2.25v8.25Z"/><path class="g" d="M565.14,633.19h-5.29v4.74h-1.26V627.46h1.26v4.62h5.29v-4.62h1.27v10.47h-1.27Z"/><path class="g" d="M605.61,503.75l-1.26-2.33h0v8.71h-1.23V499.67h1.45l3.83,6.38,1.26,2.33h0v-8.71h1.23v10.46h-1.45Z"/><path class="g" d="M620.23,510.13l-1.05-3.08H615l-1.05,3.08h-1.28l3.66-10.46h1.6l3.66,10.46Zm-3.13-9.29H617l-1.77,5.1h3.61Z"/><path class="g" d="M623.3,499.67h3.51c2.61,0,4.28,1.74,4.28,5.23s-1.67,5.23-4.28,5.23H623.3Zm3.51,9.36c1.72,0,2.94-1.21,2.94-3.27v-1.71c0-2.08-1.22-3.27-2.94-3.27h-2.25V509Z"/><path class="g" d="M639.91,505.39h-5.29v4.74h-1.26V499.67h1.26v4.62h5.29v-4.62h1.26v10.46h-1.26Z"/><path class="g" d="M556.93,586.32,555.67,584h0v8.72h-1.24V582.24h1.46l3.82,6.39,1.26,2.32H561v-8.71h1.23v10.47h-1.45Z"/><path class="g" d="M571.55,592.71l-1-3.09h-4.23l-1,3.09H564l3.66-10.47h1.6l3.66,10.47Zm-3.13-9.3h-.08l-1.77,5.1h3.62Z"/><path class="g" d="M574.61,582.24h3.52c2.6,0,4.28,1.74,4.28,5.23s-1.68,5.24-4.28,5.24h-3.52Zm3.52,9.36c1.72,0,2.93-1.2,2.93-3.27v-1.71c0-2.07-1.21-3.27-2.93-3.27h-2.25v8.25Z"/><path class="g" d="M585.58,587.17v-1.83h-1.71v-.59h1.71v-1.83h.66v1.83h1.7v.59h-1.7v1.83Z"/><path class="g" d="M598.93,473.87l-1.26-2.33h0v8.72h-1.24V469.79h1.46l3.82,6.39,1.26,2.32H603v-8.71h1.23v10.47h-1.45Z"/><path class="g" d="M613.55,480.26l-1-3.09h-4.23l-1,3.09H606l3.66-10.47h1.6l3.66,10.47Zm-3.13-9.3h-.08l-1.77,5.1h3.62Z"/><path class="g" d="M616.61,469.79h3.52c2.6,0,4.28,1.74,4.28,5.23s-1.68,5.24-4.28,5.24h-3.52Zm3.52,9.36c1.72,0,2.93-1.2,2.93-3.27v-1.71c0-2.07-1.21-3.27-2.93-3.27h-2.25v8.25Z"/><path class="g" d="M627.58,474.72v-1.83h-1.71v-.59h1.71v-1.83h.66v1.83h1.7v.59h-1.7v1.83Z"/><path class="c" d="M546.15,592.08s-37.36-6.46-50,4.28c-19.42,16.54-1,30.59,11.27,37.31"/><polygon class="b" points="516.36 637.93 501.35 636.96 506.81 633.29 506.32 626.73 516.36 637.93"/><path class="a" d="M252,321.93v-1.09h2.4v-7.5l-2.31,1.49-.55-.88,2.74-1.79h1.37v8.68h2.19v1.09Z"/><path class="a" d="M259.35,321.33v-.26c0-.49.31-.77.9-.77s.89.28.89.77v.26c0,.49-.3.76-.89.76S259.35,321.82,259.35,321.33Z"/><path class="a" d="M263.13,321.93v-1.09h2.39v-7.5l-2.31,1.49-.54-.88,2.74-1.79h1.37v8.68H269v1.09Z"/><path class="a" d="M270.49,321.33v-.26c0-.49.31-.77.9-.77s.89.28.89.77v.26c0,.49-.31.76-.89.76S270.49,321.82,270.49,321.33Z"/><path class="a" d="M274.27,321.93v-1.09h2.39v-7.5l-2.31,1.49-.54-.88,2.74-1.79h1.37v8.68h2.18v1.09Z"/><path class="a" d="M281.63,321.33v-.26c0-.49.3-.77.89-.77s.9.28.9.77v.26c0,.49-.31.76-.9.76S281.63,321.82,281.63,321.33Z"/><path class="a" d="M287.6,316.27c1.12,0,1.68-.6,1.68-1.49v-.25a1.28,1.28,0,0,0-1.47-1.42A1.86,1.86,0,0,0,286,314.3l-.89-.73a3,3,0,0,1,2.75-1.58c1.78,0,2.74.88,2.74,2.48a2.12,2.12,0,0,1-1.73,2.24v.17a2.09,2.09,0,0,1,1.9,2.33,2.74,2.74,0,0,1-3.06,2.88,3.31,3.31,0,0,1-3-1.66l1-.73a2.05,2.05,0,0,0,2,1.28,1.53,1.53,0,0,0,1.75-1.67V319c0-1.11-.62-1.66-1.75-1.66h-1v-1.1Z"/><path class="a" d="M294,321.93l3.26-8.68h-3.49v1.81h-1.12v-2.9h5.9v1.12l-3.18,8.65Z"/><path class="c" d="M256,297.8a192.7,192.7,0,0,0-48.18,53.68"/><polygon class="b" points="263.98 292.01 249.37 295.61 255.4 298.27 256.07 304.81 263.98 292.01"/><polygon class="b" points="202.89 360.07 204.9 345.16 208.18 350.86 214.76 350.83 202.89 360.07"/><path class="g" d="M187.37,278.51l-1.26-2.32h0v8.71h-1.23V274.43h1.45l3.83,6.39,1.26,2.33h0v-8.72h1.23V284.9H191.2Z"/><path class="g" d="M202,284.9,201,281.81h-4.23l-1.05,3.09h-1.28l3.66-10.47h1.61l3.66,10.47Zm-3.14-9.3h-.07L197,280.7h3.61Z"/><path class="g" d="M205.06,274.43h3.51c2.61,0,4.29,1.74,4.29,5.24s-1.68,5.23-4.29,5.23h-3.51Zm3.51,9.36c1.72,0,2.94-1.2,2.94-3.27v-1.71c0-2.07-1.22-3.27-2.94-3.27h-2.25v8.25Z"/><path class="g" d="M221.68,280.16h-5.3v4.74h-1.26V274.43h1.26v4.62h5.3v-4.62h1.26V284.9h-1.26Z"/><path class="g" d="M170.35,317.53l-1.26-2.33h0v8.72h-1.24V313.45h1.46l3.82,6.39,1.26,2.32h.05v-8.71h1.23v10.47h-1.46Z"/><path class="g" d="M185,323.92l-1.05-3.09h-4.23l-1.05,3.09h-1.27L181,313.45h1.6l3.66,10.47Zm-3.13-9.3h-.08l-1.77,5.1h3.62Z"/><path class="g" d="M188,313.45h3.52c2.6,0,4.28,1.74,4.28,5.23s-1.68,5.24-4.28,5.24H188Zm3.52,9.36c1.72,0,2.93-1.2,2.93-3.27v-1.71c0-2.07-1.21-3.27-2.93-3.27H189.3v8.25Z"/><path class="g" d="M199,318.38v-1.83h-1.71V316H199v-1.83h.66V316h1.7v.59h-1.7v1.83Z"/><path class="c" d="M205.21,330.42c6.89,3.8,16.83,5.61,23.71-8.91,3.9-8.24-2.76-19.24-10.27-27.11"/><polygon class="b" points="197.35 324.41 205.21 337.25 205.92 330.7 211.95 328.07 197.35 324.41"/><polygon class="b" points="211.26 287.84 225.38 293.02 219.11 295 217.71 301.43 211.26 287.84"/><path class="a" d="M212.34,525.2v-1.09h2.4v-7.5l-2.31,1.5-.55-.88,2.75-1.79H216v8.67h2.18v1.09Z"/><path class="a" d="M219.7,524.6v-.25c0-.49.31-.77.9-.77s.9.28.9.77v.25c0,.49-.31.77-.9.77S219.7,525.09,219.7,524.6Z"/><path class="a" d="M225.68,519.55c1.12,0,1.68-.6,1.68-1.5v-.25a1.28,1.28,0,0,0-1.47-1.41,1.86,1.86,0,0,0-1.79,1.19l-.9-.73a3.06,3.06,0,0,1,2.76-1.58c1.78,0,2.74.88,2.74,2.48A2.12,2.12,0,0,1,227,520v.17a2.1,2.1,0,0,1,1.9,2.34,2.74,2.74,0,0,1-3.07,2.88,3.3,3.3,0,0,1-3-1.66l1-.73a2.07,2.07,0,0,0,2,1.27,1.53,1.53,0,0,0,1.75-1.66v-.28a1.53,1.53,0,0,0-1.75-1.67h-1v-1.09Z"/><path class="a" d="M230.84,524.6v-.25c0-.49.31-.77.9-.77s.89.28.89.77v.25c0,.49-.3.77-.89.77S230.84,525.09,230.84,524.6Z"/><path class="a" d="M239.88,516.53H236l-.24,3.78h.16a1.75,1.75,0,0,1,1.8-1.24c1.55,0,2.6,1,2.6,3s-1.11,3.26-3.05,3.26a3.23,3.23,0,0,1-2.9-1.69l1-.72a2.12,2.12,0,0,0,1.93,1.29c1.13,0,1.71-.64,1.71-1.87V522c0-1.23-.58-1.88-1.71-1.88a1.74,1.74,0,0,0-1.53.81l-1.09-.14.32-5.38h4.9Z"/><path class="a" d="M242,524.6v-.25c0-.49.31-.77.89-.77s.9.28.9.77v.25c0,.49-.31.77-.9.77S242,525.09,242,524.6Z"/><path class="a" d="M245.76,525.2v-1.09h2.39v-7.5l-2.31,1.5-.54-.88,2.74-1.79h1.37v8.67h2.18v1.09Z"/><path class="g" d="M133.9,546.6h-1.55a1.16,1.16,0,0,1-1.26-1.23V544.3c-2.41-.22-3.94-2.11-3.94-5.4,0-3.51,1.74-5.41,4.44-5.41s4.44,1.9,4.44,5.41c0,3.2-1.44,5.06-3.74,5.37v1.28h1.61Zm.78-6.83V538a3.11,3.11,0,1,0-6.18,0v1.74a3.11,3.11,0,1,0,6.18,0Z"/><path class="g" d="M144.85,539.4h-5.3v4.74h-1.26V533.67h1.26v4.62h5.3v-4.62h1.26v10.47h-1.26Z"/><path class="g" d="M152.48,546.14h-4.35v-.91l2.08-1.68a2.21,2.21,0,0,0,1-1.57v-.1c0-.54-.37-.91-1-.91a1.21,1.21,0,0,0-1.25.93l-.86-.32a2.08,2.08,0,0,1,2.17-1.44c1.31,0,2.05.72,2.05,1.74s-.62,1.57-1.52,2.26l-1.55,1.2h3.28Z"/><path class="g" d="M183.26,591.61h-1.55a1.16,1.16,0,0,1-1.26-1.23v-1.06c-2.41-.23-3.94-2.12-3.94-5.4,0-3.51,1.74-5.42,4.44-5.42s4.44,1.91,4.44,5.42c0,3.19-1.44,5.05-3.74,5.37v1.27h1.61Zm.78-6.82v-1.74a3.11,3.11,0,1,0-6.18,0v1.74a3.11,3.11,0,1,0,6.18,0Z"/><g class="metabomaps-plots" transform="scale(1)"><g class="plot-boxes" id="pb4707" transform="translate(536.32861328125,309.3215026855469) scale(1)" style="touch-action: none;">
			</g><g class="plot-boxes" id="pb4708" transform="translate(600.384765625,421.2851257324219) scale(1)" style="touch-action: none;">
			</g><g class="plot-boxes" id="pb4709" transform="translate(586.9275512695312,546.1676635742188) scale(1)" style="touch-action: none;">
			</g><g class="plot-boxes" id="pb4710" transform="translate(373.22772216796875,649.5186767578125) scale(1)" style="touch-action: none;">
			</g><g class="plot-boxes" id="pb4711" transform="translate(206.8971405029297,603.22607421875) scale(1)" style="touch-action: none;">
			</g><g class="plot-boxes" id="pb4712" transform="translate(104.62265014648438,478.3435363769531) scale(1)" style="touch-action: none;">
			</g><g class="plot-boxes" id="pb4713" transform="translate(126.15412139892578,373.9158935546875) scale(1)" style="touch-action: none;">
			</g><g class="plot-boxes" id="pb4714" transform="translate(239.21701049804688,253.30596923828125) scale(1)" style="touch-action: none;">
			</g><g class="plot-boxes" id="pb4715" transform="translate(352.5263366699219,213.1483612060547) scale(1)" style="touch-action: none;">
			</g><g class="plot-boxes" id="pb4716" transform="translate(491.8206787109375,215.6925506591797) scale(1)" style="touch-action: none;">
			</g><g class="plot-boxes" id="pb4717" transform="translate(235.68772888183594,333.16741943359375) scale(1)" style="touch-action: none;">
			</g><g class="plot-boxes" id="pb4718" transform="translate(190.8264389038086,436.04931640625) scale(1)" style="touch-action: none;">
			</g><g class="plot-boxes" id="pb4719" transform="translate(219.5376739501953,536.5386352539062) scale(1)" style="touch-action: none;">
			</g><g class="plot-boxes" id="pb4720" transform="translate(301.65997314453125,580.1475219726562) scale(1)" style="touch-action: none;">
			</g><g class="plot-boxes" id="pb4721" transform="translate(416.76708984375,595.4126586914062) scale(1)" style="touch-action: none;">
			</g><g class="plot-boxes" id="pb4722" transform="translate(505.6462707519531,491.80072021484375) scale(1)" style="touch-action: none;">
			</g><g class="plot-boxes" id="pb4723" transform="translate(497.07958984375,379.82318115234375) scale(1)" style="touch-action: none;">
			</g><g class="plot-boxes" id="pb4724" transform="translate(393.869384765625,278.0251770019531) scale(1)" style="touch-action: none;">
			</g><g class="plot-boxes" id="pb4725" transform="translate(530.5760192871094,666.9354858398438) scale(1)" style="touch-action: none;">
			</g><g class="plot-boxes" id="pb4975" transform="translate(405.3182373046875,137.45875549316406) scale(1)" style="touch-action: none;"/></g></g><style id="plot-style">.plot-boxes &gt; g {display:none;} .plot-boxes &gt; g:first-child {display:block;} .plot-box &gt; text {font-family:Arial, sanserif;font-size:9px;dominant-baseline:central} .plot-boxes rect.temp {fill: white; filter: drop-shadow(0px 0px 4px rgba(139, 0, 0, 0.5));}</style><style id="filter-style">.plot-box {filter: drop-shadow(0px 0px 4px rgba(139, 0, 0, 0.5)); cursor: pointer;} .plot-box:only-child {filter:none; cursor: inherit} .plot-box.open {filter: none}</style></svg>