<svg id="Ebene_1" data-name="Ebene 1" xmlns="http://www.w3.org/2000/svg" viewBox="0 0 423.88 426.53"><defs><style>.cls-1{fill:none;stroke-width:43px;}.cls-1,.cls-2,.cls-3{stroke:#000;stroke-miterlimit:10;}.cls-2,.cls-3{fill:#fff;}.cls-2{stroke-linecap:round;stroke-width:70px;}.cls-3{stroke-width:25px;}</style></defs><title>identifier-icon</title><circle class="cls-1" cx="163.75" cy="163.75" r="142.25"/><line class="cls-2" x1="320.28" y1="322.93" x2="388.88" y2="391.53"/><line class="cls-3" x1="317.22" y1="319.87" x2="262.98" y2="265.63"/><path d="M152.6,273.32V259.61c8.92-.32,14.07-5.87,15.45-6.66s2.27-3,2.67-6.64c.63-5,.95-7,.95-24q0-11-.36-20.39l-.35-7.87c0-4.59-.5-7.41-1.48-8.48s-3.66-1.68-8-1.84l-8.88-.36V168.29c19-1.44,34.7-1.84,47-7.19l3,2.38c-1.18,15.11-1.77,34.1-1.77,63,0,16.7.27,17.79.82,21.27.39,2.45,1.12,4,2.17,4.74s6.22,6.43,15.48,7.14v13.71q-21.36-.7-33-.71Q180,272.61,152.6,273.32ZM185.54,102a22.89,22.89,0,0,1,22.84,23,22.92,22.92,0,0,1-39.13,16.13,23,23,0,0,1,0-32.42A22.21,22.21,0,0,1,185.54,102Z" transform="translate(-22.19 -26.49)"/></svg>